<svg width="143" height="128" viewBox="0 0 143 128" fill="none" xmlns="http://www.w3.org/2000/svg">
<path d="M143 56.9541C143 93.5975 103.017 128 66.3648 128C29.7125 128 0 98.2947 0 61.6514C0 25.008 11.5063 0 48.1585 0C84.8108 0 143 20.3108 143 56.9541Z" fill="white" fill-opacity="0.75"/>
<path d="M42.4531 107H89.7135C91.6771 107 93.1667 105.369 93.1667 103.466V93.4062H90.4583L90.4583 96C90.4583 96.4078 89.4063 97.5 89 97.5H49C48.5938 97.5 48 96.9078 48 96.5L47 47C47 46.5922 47.125 45.1484 47.125 45.1484L47.125 42.4297L42.3854 42.5656C40.4896 42.6336 39 44.1969 39 46.1V103.398C39 105.369 40.5573 107 42.4531 107Z" fill="#686868"/>
<path d="M104 91.1531V39.9727C104 38.9531 103.526 37.9336 102.781 37.2539L89.0365 24.9516C88.3594 24.3398 87.5469 24 86.6667 24H53.2865C51.3906 24 49.8333 25.6313 49.8333 27.5344V91.0852C49.8333 93.0562 51.3906 94.6195 53.2865 94.6195H100.547C102.443 94.6875 104 93.0563 104 91.1531ZM97.7031 36.3023L91.0677 36.0984C90.6615 36.0305 90.3229 35.6906 90.3229 35.2828L90.1875 29.5734L97.7031 36.3023ZM52.5417 91.1531V27.5344C52.5417 27.1266 52.8802 26.7188 53.2865 26.7188H86.6667C87.0729 26.7188 87.4115 27.1266 87.4115 27.5344L87.6146 35.3508C87.6146 37.1859 89.1042 38.7492 91 38.8172L100.615 39.0891C101.021 39.157 101.359 39.4969 101.359 39.9047V91.0852C101.359 91.493 101.021 91.9008 100.615 91.9008H53.2865C52.8802 91.9688 52.5417 91.5609 52.5417 91.1531Z" fill="#686868"/>
<path d="M99.0573 57.9844C98.7865 57.5766 98.3802 57.3047 97.9062 57.3047H95.1979C94.7917 56.557 94.25 55.8773 93.6406 55.3336C93.3021 55.0617 93.0312 54.7219 92.7604 54.382C92.625 53.9742 92.5573 53.4984 92.5573 53.0906C92.5573 52.0711 92.2865 51.0516 91.7448 50.2359C91.0677 49.4883 90.1198 48.9445 89.1042 48.7406C88.6979 48.6727 88.2917 48.4688 87.8854 48.2648C87.6146 47.925 87.3438 47.5852 87.1406 47.1773C86.7344 46.2258 85.9896 45.4781 85.1094 44.9344C84.1615 44.5945 83.1458 44.5266 82.1302 44.7305C81.724 44.7984 81.25 44.8664 80.776 44.7984C80.3698 44.6625 80.0312 44.4586 79.6927 44.1867C78.8802 43.507 77.9323 43.0992 76.849 43.0312C75.8333 43.0992 74.8177 43.507 74.0052 44.1867C73.6667 44.4586 73.3281 44.6625 72.9219 44.7984C72.4479 44.8664 72.0417 44.7984 71.5677 44.7305C70.5521 44.4586 69.5365 44.5266 68.5885 44.9344C67.7083 45.4781 67.0313 46.2258 66.5573 47.1773C66.3542 47.5852 66.151 47.925 65.8125 48.2648C65.4062 48.4688 65 48.6727 64.5938 48.7406C63.5781 48.9445 62.6979 49.4883 61.9531 50.2359C61.4115 51.1195 61.0729 52.0711 61.1406 53.0906C61.1406 53.5664 61.0729 53.9742 60.9375 54.382C60.6667 54.7219 60.3958 55.0617 60.0573 55.3336C59.3802 55.8773 58.8385 56.557 58.5 57.3047H55.7917C55.0469 57.3047 54.4375 57.9164 54.4375 58.6641C54.4375 58.9359 54.5052 59.1398 54.6406 59.3438L56.2656 62.0625L54.6406 64.7812C54.2344 65.393 54.4375 66.2766 55.1146 66.6164C55.3177 66.7523 55.5885 66.8203 55.7917 66.8203H58.5C58.9062 67.568 59.4479 68.2477 60.0573 68.7914C60.3958 69.0633 60.6667 69.4031 60.9375 69.743C61.0729 70.1508 61.1406 70.6266 61.1406 71.0344C61.1406 72.0539 61.4115 73.0734 61.9531 73.8891C62.6302 74.6367 63.5781 75.1805 64.5938 75.3844C65 75.4523 65.4062 75.6562 65.8125 75.8602C66.0833 76.2 66.3542 76.5398 66.5573 76.9477C66.9635 77.8992 67.7083 78.6469 68.5885 79.1906C69.5365 79.5305 70.5521 79.5984 71.5677 79.3945C71.974 79.3266 72.4479 79.2586 72.9219 79.3266C73.3281 79.4625 73.6667 79.6664 74.0052 79.9383C74.8177 80.618 75.7656 81.0258 76.849 81.0938C77.8646 81.0258 78.8802 80.618 79.6927 79.9383C80.0312 79.6664 80.3698 79.4625 80.776 79.3266C81.25 79.2586 81.6562 79.3266 82.1302 79.3945C83.1458 79.6664 84.1615 79.5984 85.1094 79.1906C85.9896 78.6469 86.6667 77.8992 87.1406 76.9477C87.3438 76.5398 87.5469 76.2 87.8854 75.8602C88.2917 75.6562 88.6979 75.4523 89.1042 75.3844C90.1198 75.1805 91 74.6367 91.7448 73.8891C92.2865 73.0055 92.625 72.0539 92.5573 71.0344C92.5573 70.5586 92.625 70.1508 92.7604 69.743C93.0312 69.4031 93.3021 69.0633 93.6406 68.7914C94.3177 68.2477 94.8594 67.568 95.1979 66.8203H97.9062C98.651 66.8203 99.2604 66.2086 99.2604 65.4609C99.2604 65.1891 99.1927 64.9852 99.0573 64.7812L97.4323 62.0625L99.0573 59.3438C99.3281 58.9359 99.3281 58.3922 99.0573 57.9844ZM63.5104 55.6055C63.7813 54.8578 63.9844 54.1102 63.9844 53.2945C63.9844 52.8188 64.0521 52.343 64.2552 51.9352C64.6615 51.6633 65.0677 51.4594 65.5417 51.3914C66.2865 51.1875 67.0312 50.9156 67.6406 50.4398C68.25 49.8961 68.724 49.2844 69.0625 48.6047C69.2656 48.1969 69.5365 47.7891 69.875 47.4492C70.349 47.3813 70.8229 47.3813 71.2292 47.5172C71.974 47.6531 72.7865 47.7211 73.599 47.5852C74.3438 47.3813 75.0208 47.0414 75.6302 46.5656C75.9688 46.2258 76.4427 46.0219 76.9167 45.8859C77.3906 46.0219 77.7969 46.2258 78.2031 46.5656C78.8125 47.0414 79.4896 47.3813 80.2344 47.5852C81.0469 47.7211 81.7917 47.7211 82.6042 47.5172C83.0781 47.3813 83.5521 47.3813 83.9583 47.4492C84.2969 47.7891 84.5677 48.1289 84.7708 48.6047C85.1094 49.2844 85.5833 49.9641 86.1927 50.4398C86.8021 50.9156 87.5469 51.2555 88.2917 51.3914C88.7656 51.4594 89.1719 51.6633 89.5781 51.9352C89.7812 52.343 89.849 52.8188 89.849 53.2945C89.849 54.1102 89.9844 54.8578 90.3229 55.6055C90.6615 56.2852 91.2031 56.8289 91.7448 57.3047H88.8333C86.2604 50.7117 78.8125 47.4492 72.1771 50.032C68.8594 51.3234 66.2188 53.9742 64.9323 57.3047H62.0208C62.6302 56.8289 63.1042 56.2172 63.5104 55.6055ZM85.8542 57.3047H67.9792C70.5521 52.343 76.7135 50.4398 81.6562 53.0227C83.4167 53.9742 84.9062 55.4695 85.8542 57.3047ZM90.3229 68.5195C90.0521 69.2672 89.849 70.0148 89.849 70.8305C89.849 71.3063 89.7812 71.782 89.5781 72.1898C89.1719 72.4617 88.7656 72.6656 88.2917 72.7336C86.7344 73.0055 85.3802 74.093 84.7708 75.5883C84.5677 75.9961 84.2969 76.4039 83.9583 76.7437C83.4844 76.8117 83.0104 76.8117 82.6042 76.6758C81.8594 76.5398 81.0469 76.4719 80.2344 76.6078C79.4896 76.8117 78.8125 77.1516 78.2031 77.6273C77.8646 77.9672 77.3906 78.1711 76.9167 78.307C76.4427 78.1711 76.0365 77.9672 75.6302 77.6273C75.0208 77.1516 74.3438 76.8117 73.599 76.6078C73.3281 76.5398 72.9896 76.5398 72.7188 76.5398C72.2448 76.5398 71.7708 76.6078 71.2292 76.6758C70.7552 76.8117 70.2812 76.8117 69.875 76.7437C69.5365 76.4039 69.2656 76.0641 69.0625 75.5883C68.724 74.9086 68.25 74.2289 67.6406 73.7531C67.0312 73.2773 66.2865 72.9375 65.5417 72.8016C65.0677 72.7336 64.6615 72.5297 64.2552 72.2578C64.0521 71.85 63.9844 71.3742 63.9844 70.8984C63.9844 70.0828 63.849 69.3352 63.5104 68.5875C63.1719 67.9078 62.6302 67.3641 62.0885 66.8883H65C67.5729 73.4812 75.0208 76.7438 81.6562 74.1609C84.974 72.8695 87.6146 70.2187 88.901 66.8883H91.8125C91.2031 67.2961 90.7292 67.9078 90.3229 68.5195ZM67.9792 66.8203H85.9219C83.349 71.782 77.1875 73.6852 72.2448 71.1023C70.4167 70.1508 68.9271 68.6555 67.9792 66.8203ZM94.724 62.7422L95.5365 64.1016H58.2969L59.1094 62.7422C59.3802 62.3344 59.3802 61.7906 59.1094 61.3148L58.2969 59.9555H95.4688L94.6562 61.3148C94.4531 61.7906 94.4531 62.3344 94.724 62.7422Z" fill="#FDAA29"/>
</svg>
