<svg width="143" height="128" viewBox="0 0 143 128" fill="none" xmlns="http://www.w3.org/2000/svg">
<path d="M143 56.9542C143 93.5975 103.017 128 66.3648 128C29.7125 128 -1.71864e-05 98.2947 -1.07795e-05 61.6514C-4.37255e-06 25.008 11.5063 2.01182e-06 48.1585 8.4203e-06C84.8108 1.48288e-05 143 20.3108 143 56.9542Z" fill="white" fill-opacity="0.75"/>
<path d="M39 40C43.4183 40 47 36.4183 47 32C47 27.5817 43.4183 24 39 24C34.5817 24 31 27.5817 31 32C31 36.4183 34.5817 40 39 40Z" fill="#CDCDCD"/>
<path d="M58 45H20L8 70L15 82L33 72L29 65L17.7 71.3L16 68L22 64V51L39 57L56 51V57L66 63L58 45Z" fill="#CDCDCD"/>
<path d="M104 40C108.418 40 112 36.4183 112 32C112 27.5817 108.418 24 104 24C99.5816 24 95.9999 27.5817 95.9999 32C95.9999 36.4183 99.5816 40 104 40Z" fill="#CDCDCD"/>
<path d="M123 45H84.9999L77.5999 60.4L82.6999 59L86.9999 58V51L104 57L121 51V64L127 68L125 71L114 65L110 72L128 82L135 70L123 45Z" fill="#CDCDCD"/>
<path d="M71 92.5L61.1 88.5L54 92.5V103.5H88V92.5L81 88.5L71 92.5Z" fill="#F79C13"/>
<path d="M71 49.5C75.4182 49.5 79 45.9183 79 41.5C79 37.0817 75.4182 33.5 71 33.5C66.5817 33.5 63 37.0817 63 41.5C63 45.9183 66.5817 49.5 71 49.5Z" fill="#FDAA29"/>
<path d="M90 54.5H52L40 79.5L47 91.5L65 81.5L61 74.5L49.7 80.8L48 77.5L54 73.5V60.5L71 66.5L88 60.5V73.5L94 77.5L92 80.5L81 74.5L77 81.5L95 91.5L102.1 79.5L90 54.5Z" fill="#FDAA29"/>
</svg>
