<svg width="144" height="157" viewBox="0 0 144 157" fill="none" xmlns="http://www.w3.org/2000/svg">
<circle cx="74" cy="87" r="70" fill="#6132B0"/>
<g clip-path="url(#clip0_2807_270)">
<path d="M113.533 83.3167L104.667 75.7167V65.9833C104.667 64.5667 104.1 63.2167 103.1 62.2167L89.45 48.5667C88.45 47.5667 87.1 47 85.6833 47H48.6667C45.7167 47 43.3333 49.3833 43.3333 52.3333V75.7167L34.4667 83.3167C34.1667 83.5833 34 83.95 34 84.3333V125.667C34 126.4 34.6 127 35.3333 127H112.667C113.4 127 114 126.4 114 125.667V84.3333C114 83.95 113.833 83.5833 113.533 83.3167ZM43.4 91L58.55 100.567L36.6667 122.45V86.75L43.3333 90.9667V91H43.4ZM58 65.6667C58 63.4667 59.8 61.6667 62 61.6667C64.2167 61.6667 66.3333 62.5333 67.8833 64.1L70 66.2167V69.1167L66.7833 65.9C65.7833 64.9 64.4333 64.3333 63.0167 64.3333H60.6667V67H63.0167C63.7167 67 64.4 67.2833 64.9 67.7833L66.7833 69.6667H62C59.8 69.6667 58 67.8667 58 65.6667ZM86.1667 61.6667C86.65 63.5333 88.1167 65 89.9833 65.4833C89.9833 65.5333 89.9833 65.6 89.9833 65.65C89.9833 67.85 88.1833 69.65 85.9833 69.65H81.2L83.0833 67.7667C83.5833 67.2667 84.2667 66.9833 84.9667 66.9833H87.3333V64.3167H84.9833C83.5667 64.3167 82.2167 64.8833 81.2167 65.8833L78 69.1167V66.2167L80.1167 64.1C81.6667 62.5333 83.7833 61.6667 86 61.6667C86.05 61.6667 86.1167 61.6667 86.1667 61.6667ZM90 97.0667L86.95 99H79.3333V80.3333H90V97.0667ZM71.3333 72.3333H78V77.6667H70V72.3333H71.3333ZM76.6667 80.3333V99H71.3333V80.3333H76.6667ZM91.3333 77.6667H80.6667V72.3333H92.6667V77.6667H91.3333ZM75.3333 69.6667H72.6667V67H75.3333V69.6667ZM62 72.3333H67.3333V77.6667H55.3333V72.3333H62ZM68.6667 80.3333V99H61.05L58 97.0667V80.3333H68.6667ZM61.2167 101.667H86.7833L109.45 124.333H38.55L61.2167 101.667ZM89.45 100.567L104.6 91H104.667V90.9667L111.333 86.75V122.45L89.45 100.567ZM110.433 84.1667L104.667 87.8167V79.2333L110.433 84.1667ZM101.217 64.1C101.717 64.6 102 65.2833 102 65.9833V89.4833L92.6667 95.3833V80.3333H94C94.7333 80.3333 95.3333 79.7333 95.3333 79V71C95.3333 70.2667 94.7333 69.6667 94 69.6667H91.3333C92.2 68.5167 92.6667 67.1167 92.6667 65.6667H96.6667V63H91.3333C89.8667 63 88.6667 61.8 88.6667 60.3333V51.55L101.217 64.1ZM48.6667 49.6667H85.6833C85.7833 49.6667 85.9 49.6667 86 49.6833V59C83.0833 59 80.2833 60.15 78.2333 62.2167L76.1167 64.3333H71.8833L69.7667 62.2167C67.7167 60.15 64.9167 59 62 59C58.3167 59 55.3333 61.9833 55.3333 65.6667C55.3333 67.1167 55.8 68.5167 56.6667 69.6667H54C53.2667 69.6667 52.6667 70.2667 52.6667 71V79C52.6667 79.7333 53.2667 80.3333 54 80.3333H55.3333V95.3833L46 89.5V52.3333C46 50.8667 47.2 49.6667 48.6667 49.6667ZM43.3333 87.8167L37.5667 84.1667L43.3333 79.2333V87.8167Z" fill="#F2F2F2"/>
</g>
<path d="M61.6 28.08C61.36 26.08 63.36 25.28 62.96 23.68C62.56 22.08 60.4 22.4 59.6 20.56C58.88 18.72 60.64 17.44 59.76 16C58.96 14.56 56.88 15.44 55.68 13.84C54.48 12.24 55.84 10.56 54.64 9.36C53.44 8.16 51.76 9.52 50.16 8.32C48.56 7.12 49.44 5.12 48 4.24C46.56 3.44 45.28 5.12 43.44 4.4C41.6 3.6 41.92 1.44 40.32 1.04C38.72 0.64 37.92 2.64 35.92 2.4C34 2.16 33.68 0 32 0C30.32 0 30.08 2.16 28.08 2.4C26.08 2.64 25.28 0.64 23.68 1.04C22.08 1.44 22.4 3.6 20.56 4.4C18.72 5.12 17.44 3.36 16 4.24C14.56 5.04 15.44 7.12 13.84 8.32C12.24 9.52 10.56 8.16 9.36 9.36C8.16 10.56 9.52 12.24 8.32 13.84C7.12 15.44 5.12 14.56 4.24 16C3.44 17.44 5.12 18.8 4.4 20.56C3.6 22.4 1.44 22.08 1.04 23.68C0.64 25.28 2.64 26.08 2.4 28.08C2.16 30 0 30.32 0 32C0 33.68 2.16 33.92 2.4 35.92C2.64 37.92 0.64 38.72 1.04 40.32C1.44 41.92 3.6 41.6 4.4 43.44C5.2 45.28 3.44 46.56 4.24 48C5.04 49.44 7.12 48.56 8.32 50.16C9.52 51.68 8.24 53.44 9.36 54.64C10.56 55.76 12.24 54.48 13.84 55.68C15.44 56.88 14.56 58.88 16 59.76C17.44 60.64 18.8 58.88 20.56 59.6C22.4 60.4 22.08 62.56 23.68 62.96C25.28 63.36 26.08 61.36 28.08 61.6C30 61.84 30.32 64 32 64C33.68 64 33.92 61.84 35.92 61.6C37.92 61.36 38.72 63.36 40.32 62.96C41.92 62.56 41.6 60.4 43.44 59.6C45.28 58.88 46.56 60.56 48 59.76C49.44 58.96 48.56 56.96 50.16 55.68C51.68 54.48 53.44 55.84 54.64 54.64C55.76 53.44 54.48 51.76 55.68 50.16C56.88 48.56 58.88 49.44 59.76 48C60.56 46.56 58.8 45.28 59.6 43.44C60.32 41.6 62.48 41.92 62.96 40.32C63.36 38.72 61.36 37.92 61.6 35.92C61.84 34 64 33.68 64 32C64 30.32 61.84 30.08 61.6 28.08Z" fill="#FDAA29"/>
<path d="M13.0862 36.452L19.4847 47.5344L17.2012 48.8528L10.8028 37.7703L13.0862 36.452ZM20.2343 38.6375L21.2627 40.4186L16.2238 43.3278L15.1955 41.5467L20.2343 38.6375ZM18.0338 33.5955L19.0665 35.3843L13.4948 38.601L12.4621 36.8123L18.0338 33.5955ZM19.5348 32.7289L23.6679 30.3427C24.5153 29.8534 25.3167 29.5598 26.0721 29.462C26.8326 29.3612 27.5213 29.4643 28.1383 29.7711C28.7552 30.078 29.2732 30.5942 29.6921 31.3199C30.0349 31.9136 30.2278 32.4821 30.271 33.0256C30.3162 33.561 30.2382 34.0763 30.0369 34.5714C29.8378 35.0585 29.543 35.5264 29.1525 35.9751L28.6491 36.7731L25.0565 38.8474L24.0129 37.075L26.6846 35.5326C27.0855 35.3011 27.3768 35.0382 27.5587 34.7438C27.7405 34.4493 27.8241 34.1372 27.8096 33.8073C27.8001 33.4745 27.6987 33.1406 27.5053 32.8057C27.3003 32.4505 27.057 32.1816 26.7757 31.9989C26.4943 31.8163 26.1797 31.7341 25.8316 31.7524C25.4836 31.7707 25.1066 31.897 24.7006 32.1314L22.851 33.1992L28.2167 42.4929L25.9333 43.8113L19.5348 32.7289ZM32.1291 40.2342L26.75 36.7532L29.1541 35.345L34.5109 38.717L34.5724 38.8235L32.1291 40.2342ZM42.5045 31.8691L43.5328 33.6502L37.6338 37.056L36.6055 35.2749L42.5045 31.8691ZM31.9813 25.5429L38.3798 36.6253L36.0963 37.9437L29.6979 26.8613L31.9813 25.5429ZM38.9715 27.5253L39.9735 29.2607L34.8433 32.2227L33.8413 30.4872L38.9715 27.5253ZM37.1267 22.5722L38.1594 24.3609L32.2681 27.7623L31.2354 25.9736L37.1267 22.5722ZM51.4496 26.7046L52.478 28.4857L46.579 31.8915L45.5507 30.1104L51.4496 26.7046ZM40.9265 20.3784L47.3249 31.4608L45.0415 32.7792L38.643 21.6968L40.9265 20.3784ZM47.9167 22.3608L48.9187 24.0962L43.7885 27.0582L42.7865 25.3227L47.9167 22.3608ZM46.0719 17.4077L47.1046 19.1964L41.2133 22.5978L40.1806 20.8091L46.0719 17.4077ZM49.925 15.1831L54.1166 23.0234L52.2899 24.0781L47.5882 16.5323L49.925 15.1831ZM53.3457 26.6451C53.1582 26.3204 53.1145 25.987 53.2148 25.6449C53.3171 25.2949 53.5535 25.0129 53.924 24.7991C54.2995 24.5823 54.6618 24.5185 55.0111 24.6078C55.3574 24.692 55.6243 24.8965 55.8118 25.2213C55.9935 25.5359 56.0356 25.8668 55.9383 26.2139C55.841 26.561 55.6046 26.8429 55.2291 27.0597C54.8587 27.2736 54.4963 27.3373 54.142 27.251C53.7928 27.1617 53.5273 26.9597 53.3457 26.6451Z" fill="white"/>
<defs>
<clipPath id="clip0_2807_270">
<rect width="80" height="80" fill="white" transform="translate(34 47)"/>
</clipPath>
</defs>
</svg>
