<svg width="76" height="99" viewBox="0 0 76 99" fill="none" xmlns="http://www.w3.org/2000/svg">
<path d="M17.484 72.836V66.14C17.484 62.668 18.0213 59.692 19.096 57.212C20.2533 54.732 21.7 52.5827 23.436 50.764C25.172 48.9453 26.9907 47.3747 28.892 46.052C30.876 44.6467 32.736 43.324 34.472 42.084C36.208 40.7613 37.6133 39.4387 38.688 38.116C39.8453 36.7107 40.424 35.0987 40.424 33.28C40.424 31.8747 39.8867 30.7173 38.812 29.808C37.7373 28.816 35.7947 28.32 32.984 28.32C30.5867 28.32 28.1893 28.568 25.792 29.064C23.3947 29.4773 21.08 30.056 18.848 30.8C16.616 31.4613 14.4667 32.2467 12.4 33.156C10.416 33.9827 8.556 34.8093 6.82 35.636L0.248 10.34C2.48 9.26533 4.96 8.19066 7.688 7.11599C10.4987 5.95866 13.516 4.92533 16.74 4.016C20.0467 3.10666 23.6013 2.36266 27.404 1.784C31.2067 1.12266 35.216 0.791993 39.432 0.791993C44.9707 0.791993 49.972 1.49466 54.436 2.9C58.9 4.22266 62.6613 6.12399 65.72 8.604C68.8613 11.0013 71.2587 13.8533 72.912 17.16C74.5653 20.384 75.392 23.8973 75.392 27.7C75.392 32.5773 74.6893 36.5453 73.284 39.604C71.8787 42.6627 70.1427 45.2667 68.076 47.416C66.0093 49.4827 63.736 51.3013 61.256 52.872C58.776 54.36 56.5027 55.972 54.436 57.708C52.3693 59.3613 50.6333 61.3867 49.228 63.784C47.8227 66.0987 47.12 69.116 47.12 72.836H17.484ZM17.484 78.664H46.996V99H17.484V78.664Z" fill="#2C27CF" fill-opacity="0.31"/>
</svg>
