<svg width="188" height="184" viewBox="0 0 188 184" fill="none" xmlns="http://www.w3.org/2000/svg">
<path d="M35.6813 133.852C17.3596 102.118 34.7846 52.3333 66.5264 34.0071C98.2682 15.681 138.853 26.5502 157.174 58.2843C175.496 90.0184 178.035 117.429 146.293 135.755C114.552 154.081 54.003 165.586 35.6813 133.852Z" fill="white" fill-opacity="0.75"/>
<path d="M61.1599 101.82H65.7799C66.7039 101.82 67.3199 101.204 67.3199 100.28C67.3199 99.3562 66.7039 98.7402 65.7799 98.7402H61.1599C60.2359 98.7402 59.6199 99.3562 59.6199 100.28C59.6199 101.204 60.2359 101.82 61.1599 101.82Z" fill="#CDCDCD"/>
<path d="M124.3 112.6H61.1596C60.2356 112.6 59.6196 113.216 59.6196 114.14C59.6196 115.064 60.2356 115.68 61.1596 115.68H124.3C125.224 115.68 125.84 115.064 125.84 114.14C125.84 113.216 125.224 112.6 124.3 112.6Z" fill="#CDCDCD"/>
<path d="M61.1596 111.06H115.06C115.984 111.06 116.6 110.444 116.6 109.52C116.6 108.596 115.984 107.98 115.06 107.98H61.1596C60.2356 107.98 59.6196 108.596 59.6196 109.52C59.6196 110.444 60.2356 111.06 61.1596 111.06Z" fill="#CDCDCD"/>
<path d="M61.1596 106.44H93.4996C94.4236 106.44 95.0396 105.824 95.0396 104.9C95.0396 103.976 94.4236 103.36 93.4996 103.36H61.1596C60.2356 103.36 59.6196 103.976 59.6196 104.9C59.6196 105.824 60.2356 106.44 61.1596 106.44Z" fill="#CDCDCD"/>
<path d="M75.0196 98.7402C74.0956 98.7402 73.4796 99.3562 73.4796 100.28C73.4796 101.204 74.0956 101.82 75.0196 101.82H99.6596C100.584 101.82 101.2 101.204 101.2 100.28C101.2 99.3562 100.584 98.7402 99.6596 98.7402H75.0196Z" fill="#CDCDCD"/>
<path d="M61.1597 97.2002H108.9C109.824 97.2002 110.44 96.5842 110.44 95.6602C110.44 94.7362 109.824 94.1202 108.9 94.1202H61.1597C60.2357 94.1202 59.6197 94.7362 59.6197 95.6602C59.6197 96.5842 60.2357 97.2002 61.1597 97.2002Z" fill="#CDCDCD"/>
<path d="M130.152 90.4242C131.384 89.0382 131.384 86.7282 129.998 85.3422C128.612 83.9562 126.148 83.9562 124.762 85.3422L120.604 89.5002H59.62C57.002 89.5002 55 91.5022 55 94.1202V115.68C55 118.298 57.002 120.3 59.62 120.3H122.144L129.382 127.538C129.69 127.846 129.998 128 130.46 128C130.614 128 130.922 128 131.076 127.846C131.692 127.538 132 127.076 132 126.46V94.1202C132 92.5802 131.23 91.3482 130.152 90.4242ZM126.918 87.4982C127.226 87.1902 127.534 87.1902 127.842 87.4982C128.15 87.8062 128.15 88.1142 127.842 88.4222L112.904 103.36H111.98V102.436L126.918 87.4982ZM128.92 122.764L123.838 117.682C123.53 117.374 123.222 117.22 122.76 117.22H59.62C58.696 117.22 58.08 116.604 58.08 115.68V94.1202C58.08 93.1962 58.696 92.5802 59.62 92.5802H117.524L109.362 100.742C109.054 101.05 108.9 101.358 108.9 101.82V104.9C108.9 105.824 109.516 106.44 110.44 106.44H113.52C113.982 106.44 114.29 106.286 114.598 105.978L127.842 92.7342C128.458 92.8882 128.92 93.5042 128.92 94.1202V122.764Z" fill="#686868"/>
<path d="M127.38 51.0002H59.62C57.002 51.0002 55 53.0022 55 55.6202V84.8801C55 85.4962 55.308 86.1122 55.924 86.2662C56.078 86.4202 56.386 86.4202 56.54 86.4202C57.002 86.4202 57.31 86.2662 57.618 85.9582L64.856 78.7202H127.38C129.998 78.7202 132 76.7182 132 74.1002V55.6202C132 53.0022 129.998 51.0002 127.38 51.0002Z" fill="#686868"/>
<path d="M101.2 60.5442H96.426L94.886 56.0782C94.732 55.4622 94.116 55.0002 93.346 55.0002C92.576 55.0002 92.268 55.3082 91.96 55.9242L90.42 60.3902H85.8C85.184 60.3902 84.568 60.8522 84.26 61.4682C83.952 62.0842 84.26 62.8542 84.876 63.1622L88.726 65.9342L87.186 70.5542C87.032 71.1702 87.186 71.9402 87.802 72.2482C88.418 72.7102 89.034 72.7102 89.65 72.2482L93.5 69.4762L97.35 72.2482C97.658 72.4022 97.966 72.5562 98.274 72.5562C98.582 72.5562 98.89 72.4022 99.198 72.2482C99.814 71.7862 99.968 71.1702 99.814 70.5542L98.274 65.9342L102.124 63.1622C102.74 62.8542 102.894 62.2382 102.74 61.6222C102.586 61.0062 101.816 60.5442 101.2 60.5442Z" fill="#FDAA29"/>
<path d="M79.948 60.5442H75.174L73.634 56.0782C73.48 55.4622 72.864 55.0002 72.094 55.0002C71.324 55.0002 70.862 55.4622 70.554 56.0782L69.014 60.5442H64.548C63.932 60.5442 63.316 61.0062 63.008 61.6222C62.7 62.2382 63.008 63.0082 63.624 63.3162L67.474 66.0882L65.934 70.7082C65.78 71.3242 65.934 72.0942 66.55 72.4022C67.166 72.8642 67.782 72.8642 68.398 72.4022L72.248 69.6302L76.098 72.4022C76.406 72.5562 76.714 72.7102 77.022 72.7102C77.33 72.7102 77.638 72.5562 77.946 72.4022C78.562 71.9402 78.716 71.3242 78.562 70.7082L77.022 66.0882L80.872 63.3162C81.488 62.8542 81.642 62.2382 81.488 61.6222C81.334 61.0062 80.718 60.5442 79.948 60.5442Z" fill="#FDAA29"/>
<path d="M122.452 60.5442H117.678L116.138 56.0782C115.984 55.4622 115.368 55.0002 114.598 55.0002C113.982 55.0002 113.366 55.4622 113.058 56.0782L111.518 60.5442H106.744C106.128 60.5442 105.512 61.0062 105.204 61.6222C104.896 62.2382 105.204 63.0082 105.82 63.3162L109.67 66.0882L108.13 70.7082C107.976 71.3242 108.13 72.0942 108.746 72.4022C109.054 72.5562 109.362 72.7102 109.67 72.7102C109.978 72.7102 110.286 72.5562 110.594 72.4022L114.444 69.6302L118.294 72.4022C118.91 72.8642 119.526 72.8642 120.142 72.4022C120.758 71.9402 120.912 71.3242 120.758 70.7082L119.218 66.0882L123.068 63.3162C123.684 62.8542 123.838 62.2382 123.684 61.6222C123.53 61.0062 123.068 60.5442 122.452 60.5442Z" fill="#FDAA29"/>
</svg>
